<svg viewBox="0 0 1024 1024" version="1.1" xmlns="http://www.w3.org/2000/svg"  width="1em" height="1em">
	<path d="M187.892042 1009.354922C130.444215 1009.354922 83.701273 963.670069 83.701273 907.466323V101.949563C83.701273 45.74685 130.444215 0 187.892042 0h423.982675l14.62622 10.144842 298.132079 326.389462v571.05808c0 56.077684-46.742942 101.762538-104.190769 101.762538H187.892042zM862.39279 699.537366V360.559331L589.779875 62.178229h-401.887833c-23.090933 0-41.950543 17.800488-41.950542 39.709337v805.57979c0 21.907816 18.85961 39.647339 41.950542 39.647339H614.81236V1009.524381h206.658011c57.067576 0 103.329005-46.261429 103.329005-103.329005V699.537366h-62.406586z" fill="currentcolor"></path>
	<path d="M867.162457 398.322982H611.974946c-36.664231-0.033065-66.376486-29.746354-66.410585-66.409551V35.274456h62.240226V331.913431l259.355803 4.170358v62.240227zM905.43862 992.002882l1.849589-1.847523c42.654213-42.654213 42.654213-112.434357 0-155.084437l-98.840393-98.813528c-42.654213-42.654213-112.432291-42.654213-155.113369 0l-1.792759 1.818591c-3.551418 3.552451-6.751517 7.339459-9.745991 11.21533l36.197183 36.165152a58.040936 58.040936 0 0 1 9.098119-11.831171l1.792759-1.819624c23.160163-23.161197 60.852518-23.161197 84.013714 0l98.811461 98.870359c23.161197 23.104366 23.161197 60.765721 0 83.927951l-1.81859 1.850622c-23.164296 23.161197-60.855618 23.161197-83.988916 0L741.194067 911.775142c-19.16753 7.748642-39.600841 11.417855-59.94219 11.066537l69.102306 69.133304c42.65318 42.683145 112.432291 42.683145 155.086504 0.026866h-0.001033z m-142.403902-146.045216c3.552451-3.549351 6.75255-7.338426 9.71706-11.242196L736.585593 798.578217c-2.496429 4.226156-5.488837 8.220856-9.100186 11.832204l-1.849589 1.848556c-23.131231 23.161197-60.823586 23.161197-83.985815 0l-98.811461-98.840393c-23.131231-23.16223-23.131231-60.824619 0-83.985815l1.847522-1.84959c23.16223-23.16223 60.854584-23.16223 83.956884 0l44.71046 44.708394c19.169597-7.749675 39.629773-11.448854 59.974221-11.097535l-69.07544-69.160169c-42.682112-42.654213-112.488088-42.654213-155.113369 0l-1.849589 1.849589c-42.625281 42.65318-42.625281 112.432291 0 155.084437l98.83936 98.811461c42.654213 42.596349 112.461223 42.596349 155.086504 0l1.81859-1.82169h0.001033z" fill="currentcolor"></path>
</svg>