<svg  viewBox="0 0 1024 1024" version="1.1" width="1em" height="1em">
	<path d="M966.303 1023.092H57.697c-31.314 0-56.789-25.475-56.789-56.788V57.697C0.908 26.383 26.383 0.908 57.697 0.908h908.607c31.313 0 56.788 25.475 56.788 56.789v268.498c0 18.818-15.256 34.073-34.073 34.073s-34.073-15.255-34.073-34.073V69.055H69.054v885.89h885.892V630.87c0-18.818 15.255-34.073 34.073-34.073s34.073 15.255 34.073 34.073v335.434c0 31.312-25.476 56.788-56.789 56.788z" p-id="1859"></path>
	<path d="M512 841.37c-47.516 0-93.63-9.314-137.058-27.682-41.93-17.735-79.58-43.117-111.903-75.441-32.324-32.324-57.707-69.974-75.441-111.904-18.369-43.428-27.683-89.541-27.683-137.058 0-47.516 9.314-93.629 27.683-137.057 17.734-41.93 43.117-79.58 75.44-111.904 32.325-32.324 69.974-57.706 111.904-75.44C418.37 146.513 464.484 137.2 512 137.2c47.516 0 93.63 9.315 137.058 27.683 41.931 17.735 79.58 43.117 111.903 75.441s57.707 69.973 75.441 111.904c18.369 43.43 27.682 89.542 27.682 137.057 0 47.517-9.313 93.63-27.682 137.058-17.734 41.931-43.117 79.58-75.44 111.904s-69.974 57.706-111.904 75.44C605.63 832.058 559.516 841.37 512 841.37z m0-636.025c-75.843 0-147.146 29.535-200.776 83.164-53.629 53.629-83.164 124.933-83.164 200.775s29.535 147.147 83.164 200.775c53.63 53.63 124.932 83.165 200.776 83.165 75.843 0 147.146-29.535 200.775-83.165 53.63-53.628 83.165-124.932 83.165-200.775s-29.535-147.146-83.165-200.775C659.146 234.88 587.843 205.345 512 205.345z" p-id="1860"></path>
	<path d="M148.557 318.92a147.649 147.649 0 1 0 295.298 0 147.649 147.649 0 1 0-295.298 0z" fill="currentcolor"></path>
	<path d="M296.206 500.643c-100.201 0-181.722-81.52-181.722-181.722s81.52-181.722 181.722-181.722 181.722 81.52 181.722 181.722c0 100.201-81.52 181.722-181.722 181.722z m0-295.298c-62.626 0-113.576 50.95-113.576 113.576s50.95 113.576 113.576 113.576 113.576-50.95 113.576-113.576c0-62.626-50.95-113.576-113.576-113.576z" p-id="1862"></path>
	<path d="M664.826 439.957L857.57 632.702c8.87 8.87 8.87 23.253 0 32.124L664.826 857.57c-8.87 8.87-23.253 8.87-32.124 0L439.957 664.826c-8.87-8.87-8.87-23.253 0-32.124l192.745-192.745c8.871-8.871 23.253-8.871 32.124 0z" fill="#FFFFFF" p-id="1863"></path>
	<path d="M648.764 898.296c-15.169 0-29.43-5.907-40.155-16.632L415.864 688.919c-10.726-10.726-16.632-24.986-16.632-40.156s5.906-29.43 16.632-40.155l192.745-192.745c10.725-10.726 24.986-16.632 40.155-16.632s29.43 5.906 40.156 16.632l192.744 192.745c10.725 10.725 16.632 24.986 16.632 40.155s-5.907 29.43-16.632 40.156L688.919 881.664c-10.726 10.725-24.986 16.632-40.155 16.632zM472.081 648.764l176.682 176.683 176.683-176.683-176.682-176.683-176.683 176.683z" ></path>
</svg>