<svg viewBox="0 0 1024 1024" version="1.1" xmlns="http://www.w3.org/2000/svg" width="24" height="24">
	<path d="M507.6 573.6c-3.6 0-7.1-0.8-10.5-2.3L109.6 392.7c-8.8-4.1-14.5-12.8-14.5-22.5-0.1-9.7 5.4-18.5 14.2-22.7l386.4-185.8c6.7-3.2 14.5-3.3 21.2-0.2l405.5 185.8c8.9 4.1 14.7 13.1 14.6 22.9s-5.9 18.7-14.9 22.7L517.7 571.5c-3.2 1.4-6.6 2.1-10.1 2.1zM178.7 369.5l329.1 151.7L851 369.6 506.7 211.8l-328 157.7z" p-id="8813"></path>
	<path d="M509.8 735.5c-4 0-7.9-0.9-11.5-2.8L100.4 526.3c-12.3-6.4-17-21.4-10.7-33.7 6.4-12.3 21.4-17 33.7-10.7l386.2 200.4L893 482c12.2-6.4 27.3-1.7 33.7 10.6 6.4 12.2 1.7 27.3-10.6 33.7L521.3 732.7c-3.6 1.9-7.6 2.8-11.5 2.8z" p-id="8814"></path>
	<path d="M510.4 884.2c-4 0-7.9-0.9-11.5-2.8L101.1 675c-12.3-6.4-17-21.4-10.7-33.7s21.4-17 33.7-10.7L510.4 831l383.3-200.3c12.2-6.4 27.3-1.7 33.7 10.6 6.4 12.2 1.7 27.3-10.6 33.7L522 881.4c-3.7 1.9-7.6 2.8-11.6 2.8z" ></path>
</svg>