<svg viewBox="0 0 1024 1024" version="1.1" xmlns="http://www.w3.org/2000/svg" width="1em" height="1em" fill="currentColor">
	<path d="M509.8 735.5c-4 0-7.9-0.9-11.5-2.8L100.4 526.3c-12.3-6.4-17-21.4-10.7-33.7 6.4-12.3 21.4-17 33.7-10.7l386.2 200.4L893 482c12.2-6.4 27.3-1.7 33.7 10.6 6.4 12.2 1.7 27.3-10.6 33.7L521.3 732.7c-3.6 1.9-7.6 2.8-11.5 2.8z"></path>
	<path d="M510.4 884.2c-4 0-7.9-0.9-11.5-2.8L101.1 675c-12.3-6.4-17-21.4-10.7-33.7s21.4-17 33.7-10.7L510.4 831l383.3-200.3c12.2-6.4 27.3-1.7 33.7 10.6 6.4 12.2 1.7 27.3-10.6 33.7L522 881.4c-3.7 1.9-7.6 2.8-11.6 2.8z" ></path>
</svg>