<svg xmlns="http://www.w3.org/2000/svg" id="Layer_1" viewBox="0 0 4680 3120"><defs><clipPath id="clippath-8"><path d="M3399.81 1227.35l8.39-.51s15.62 4.74 20.23 20.1c4.61 15.37 19.96 74.59 7.67 142.2s10.4 193.16 10.4 193.16-71.85 46.1-142.53 0c0 0 16.9-66.84 16.13-137.52s-24.59-98.72-3.84-146.36c20.74-47.63 42.38-67.1 51.73-67.74z" class="cls-19"/></clipPath><clipPath id="clippath-18"><path d="M3345.02 1103.28s-29.19 94.11 3.46 96.04c32.65 1.92 49.94-18.44 49.94-18.44s17.29.38 19.21-17.29-13.06-12.23-13.06-12.23-12.29-6.98-10.76-18.89c0 0-34.57-4.61-48.79-29.19" class="cls-61"/></clipPath><clipPath id="clippath"><path d="M3342.75 1138.46s-20.87-12.93-15.24-46.74c5.63-33.8 40.72-33.55 40.72-33.55s28.94-33.04 76.57 0 28.17 121.65 66.58 151.86c38.41 30.22 56.95 37.23 95.36 50.03s49.58 37.55 50.1 79.04c.51 41.49-51.66 79.76-91.1 70.54s-35.43-35.52-68.73-51.4c-33.29-15.88-40.06-20.86-46.2-53.13-6.15-32.27-29.9-62.32-56.02-70.26s-52.05-96.4-52.05-96.4z" class="cls-2"/></clipPath><clipPath id="clippath-1"><path d="M1917.79 1573.95l-1.99 11.5s9.28 31.53-8.91 50.59l25.77 25.29 27.06-22.98s-8.14-13.86-.35-50.24l-24.11-34.36-17.47 20.21z" class="cls-61"/></clipPath><clipPath id="clippath-2"><path d="M1817.59 1585.46s-42.16-48.18-42.16-77.63 7.51-120.7 7.51-120.7 18.15-63.38-1.16-86.63c-21.08-25.39-34.07 8.52-34.94 20.21-.85 11.48 6.06 64.97 6.06 64.97s-26.13 99.19-22.09 137.31 61.07 111.32 61.07 111.32l25.7-48.84z" class="cls-61"/></clipPath><clipPath id="clippath-3"><path d="M2127.71 1664.33s49.09 12.13 53.71 2.89 24.26-114.35 38.69-131.68 34.65-23.1 52.55-36.96 53.71-25.99 17.33 31.19c-22.52 31.19-36.96 15.59-45.62 42.16s-14.61 133.99-32.14 143.8c-17.53 9.82-93.71.47-93.71.47z" class="cls-61"/></clipPath><clipPath id="clippath-4"><path d="M3466.03 2084.18s5.76 17.98 12.16 31.66c6.4 13.67 20.73 20.24 21.93 35.27s-37.68 33.52-63.97 49.72c-26.3 16.2-53.68 21.63-59.79-.91-6.12-22.55 42.85-35.26 48.52-69.44 5.67-34.19-1.62-35.96-1.62-35.96l42.77-10.33z" class="cls-12"/></clipPath><clipPath id="clippath-5"><path d="M3292.9 2080.94s.06 18.88 2.01 33.85c1.96 14.97 13.64 25.56 10.24 40.25s-46.05 20.56-76.01 28.04-57.7 4.38-56.72-18.96c.99-23.34 51.51-20.65 67.25-51.52s9.33-34.76 9.33-34.76l43.9 3.09z" class="cls-12"/></clipPath><clipPath id="clippath-6"><path d="M3317.38 1537.71s-78.96 245.66-71.42 315.51c7.53 69.85.79 234.92.79 234.92s29.83 16.65 48.02 2.3c0 0 22.34-182.68 18.32-230.47s.9-52.35 32.89-130.29c31.98-77.93 66.43-124.39 69.98-141.98l-98.57-49.99z" class="cls-13"/></clipPath><clipPath id="clippath-7"><path d="M3337.14 1557.29s-6.8 257.97 20.21 322.95c27.01 64.97 67.13 225.39 67.13 225.39s33.5 7.66 47-11.2c0 0-23.49-184.34-40.87-229.12-17.38-44.77-20.49-47.86-11.63-131.64 8.85-83.78 33-121.17 26.4-157.92l-108.23-18.46z" class="cls-20"/></clipPath><clipPath id="clippath-17"><path d="M3409.47 1174.09s-8.45 31.5-1.28 52.76c0 0-8.45 15.11-40.21 3.84 0 0 6.15-22.92 2.56-43.28z" class="cls-61"/></clipPath><clipPath id="clippath-9"><path d="M2456.98 566.89c0 .65.48 28.09-24.23 43.61l6.04 23.31 21.35 5.96s11.78-29.06 24.34-34.51l7.8-9.13-25.34-35.96-9.96 6.73z" class="cls-61"/></clipPath><clipPath id="clippath-10"><path d="M2055.98 632.95l14.98-5.54s74.18 14.92 121.78 8.51c47.6-6.42 202.93-37.53 240.01-25.42 0 0 13.29 23.75 27.4 29.28 0 0-33.48 90.28-97.56 92.48s-300.93.22-300.93.22l-5.67-99.53z" class="cls-20"/></clipPath><clipPath id="clippath-11"><path d="M2540.31 544.83l7.92-2.76s15.65 4.22 23.28-9.87c7.63-14.1-5.41-18.71-7.32-25.96s11.97-20.17-6.64-37.4c-18.6-17.23-32-8.63-48.75-12.5s-28.29-10.49-57.72 9.84c-29.44 20.33-29.89 62.74-7.37 102.31 10.94 18.86 9.02 19.78 9.02 19.78l18.82-6.44 68.77-37z" class="cls-13"/></clipPath><clipPath id="clippath-12"><path d="M2554.66 538.3s-15.16 77.79-44.64 82.9c-29.47 5.11-37.25-41.03-36.49-47.27 0 0-9.37.45-8.79-8.98.59-9.43 9.48-13.06 14.02-10.2 0 0 11.65-3 16.18-13.66 4.53-10.67 10.9-5.86 15.59-6.03s8.47 1.96 15.07-1.94 14.67-.36 19.36 3.17 9.69 2.03 9.69 2.03z" class="cls-61"/></clipPath><clipPath id="clippath-13"><path d="M1565.37 642.99s136.6 15.37 202.03 8.96c65.43-6.4 162.05-33.92 224.04-32.72s79.52 8.18 79.52 8.18l-9.31 105.07s-254.61 4.99-300.88-.94-198.31-22.76-198.31-22.76-15.63-26.55 2.92-65.79z" class="cls-13"/></clipPath><clipPath id="clippath-14"><path d="M1830.44 1975.62l-5.39 12.85s-7.18 35.66 5.39 78.98c12.56 43.31 29.02 116.08 4.76 146.4s-172.39 116.95-172.39 116.95 2.6 39.85 33.79 42.45c0 0 200.98-95.29 216.57-123.01s42.71-187.98 42.71-187.98 125.35-11.59 139.21 13.54c13.86 25.12-32.92 194.05-32.92 194.05s38.12 24.26 58.04 2.6c0 0 79.3-195.17 65.25-255.23-7.81-33.41-11.54-62.55-145.42-73.66l-209.6 32.08z" class="cls-20"/></clipPath><clipPath id="clippath-15"><path d="M1815.28 1569.62s59.85 30.33 71.32 45.62c11.48 15.29 20.29 20.79 20.29 20.79s23.15 22.38 52.83 2.31c18.42-1.66 25.35 2.24 39-4.26 13.64-6.5 50.03-1.08 79.05 6.28s58.04 15.16 58.04 15.16 5.63 44.18-19.92 81l-81.72-6.93s-5.78 168.64 2.89 196.36c8.66 27.72 7.48 103.95-117.54 106.84-66.11 0-96.14-23.1-95.56-55.44s9.24-84.9 12.71-137.45 2.92-132.25 2.92-132.25l-64.14-67.57s9.97-38.99 39.85-70.46z" class="cls-12"/></clipPath><clipPath id="clippath-16"><path d="M1994.6 1493.1s19.65 135.56-40.99 101.35c-11.26-6.06-22.09-38.55-22.09-38.55s-14.29.43-11.69-18.63 17.33-11.26 18.63-10.4c0 0 40.13-11.25 56.15-33.78z" class="cls-61"/></clipPath><linearGradient id="linear-gradient" x1="1223.6" x2="3214.33" y1="1612.79" y2="1612.79" gradientUnits="userSpaceOnUse"><stop offset="0" stop-color="#b0d8ff"/><stop offset=".02" stop-color="#b2d9ff"/><stop offset=".15" stop-color="#c4e1ff"/><stop offset=".3" stop-color="#d0e6ff"/><stop offset=".51" stop-color="#d7eaff"/><stop offset="1" stop-color="#daebff"/></linearGradient><style>.cls-1{fill:#fe8e00}.cls-2{fill:#191e56}.cls-3{fill:#7bbdff}.cls-5{fill:#b0d8ff}.cls-12{fill:#ffab00}.cls-13{fill:#1e2889}.cls-16{fill:#d1e3ff}.cls-19{fill:#006dfe}.cls-20{fill:#0542bf}.cls-21{fill:#45a7ff}.cls-24{fill:#d5e1f7}.cls-25{fill:#e3eeff}.cls-45{fill:#78c2ff}.cls-46{fill:#0e2354}.cls-49{fill:transparent}.cls-50{fill:#ea756c}.cls-52{fill:#00d967}.cls-55{fill:#4893ff}.cls-58{fill:#daebff}.cls-60{fill:#e2eefa}.cls-61{fill:#ffaca6}.cls-64{fill:#ebf5ff}</style></defs><path d="M0 0h4680v3120H0z" class="cls-49"/><path d="M781.43 2032.79h2931.52v17.52H781.43z" fill="#d3e2f9"/><ellipse cx="1236.01" cy="2281.22" class="cls-60" rx="126.32" ry="33.98"/><ellipse cx="3340.69" cy="2182.9" class="cls-60" rx="189.4" ry="40.91"/><ellipse cx="2948.82" cy="2252.55" class="cls-60" rx="265.5" ry="30.11"/><ellipse cx="1911.09" cy="2387.9" class="cls-60" rx="291.76" ry="67.31" transform="rotate(-11.11 1911.301 2388.094)"/><ellipse cx="1489.62" cy="2280.52" class="cls-60" rx="102.82" ry="18.22"/><path d="M1214.92 2053.57s-17.52 64.6-65.46 97.03-126.95 19.92-174.7-4.06-97.06-61.86-108.01-95.36c-10.95-33.49 60.85-34.01 60.85-34.01s-38.99-35.48-57.74-62.67-10.19-61.28 35.29-51.27l45.49 10.01s-45.18-58.29-52.83-98.87 3.85-106.13 57.54-72.41 76.57 122.66 76.57 122.66 2.21-40.34 10.76-71.26c8.54-30.92 38.86-33.3 60.44 2.98s38.18 91.12 38.18 91.12 4.26-45.79 26.94-43.26 45.37 50.55 51.89 100.9-5.18 108.47-5.18 108.47z" fill="#00b77b"/><path d="M1211.43 2018.83s7.02-217.72-156.66-301.85c0 0-83.54 179.79 26.13 341.11s87.39 123.95 87.39 123.95l43.14-163.22z" class="cls-52"/><path d="M1084.01 1821.24l82.08 327" stroke="#fff" stroke-linejoin="round" stroke-linecap="round" stroke-width="2" fill="none"/><path d="M3267.95 815.57h600.66v716.67h-600.66z" class="cls-16"/><path d="M3280.79 815.57h615.3v716.67h-615.3z" class="cls-25"/><path d="M3267.95 1532.24h600.66v51.07h-600.66z" class="cls-16"/><path d="M3326.57 1532.24h615.3v51.07h-615.3z" class="cls-25"/><path d="M3268.58 904.73h639.73v538.36h-639.73z" transform="rotate(90 3588.445 1173.905)" fill="#f5fcff"/><path d="M3385.36 1493.77l225.81-639.73h106.6l-225.81 639.73z" class="cls-49"/><path d="M3337.08 1276.73c-1.52 0-2.75-1.23-2.75-2.75v-394.9c0-1.52 1.23-2.75 2.75-2.75s2.75 1.23 2.75 2.75v394.9c0 1.52-1.23 2.75-2.75 2.75" fill="#e2eeff"/><path d="M3514.85 1493.77l225.81-639.73h41.56l-225.81 639.73z" class="cls-49"/><path d="M3857.62 854.05v639.73h-4.89V854.05z" class="cls-16"/><path d="M3905.19 903.26h-600.66l-3.54-34.26h600.66z" class="cls-16"/><path d="M3905.19 928.34h-600.66l-3.54-34.26h600.66z" class="cls-16"/><path d="M3905.19 958.44h-600.66l-3.54-34.26h600.66z" class="cls-16"/><path d="M3905.19 991.93h-600.66l-3.54-34.26h600.66zm0 40.14h-600.66l-3.54-34.27h600.66zm0 45.14h-600.66l-3.54-34.26h600.66z" class="cls-16"/><path d="M1223.6 1029.05v1107.84c0 32.93 26.7 59.63 59.63 59.63H3154.7c32.93 0 59.63-26.7 59.63-59.63V1029.05H1223.61z" fill="url(#linear-gradient)"/><path d="M3214.33 792.99c0-32.93-26.7-59.63-59.63-59.63H1283.23c-32.93 0-59.63 26.7-59.63 59.63v85.91h1990.72v-85.91z" class="cls-19"/><path d="M1223.6 878.9h1990.72v150.15H1223.6z" class="cls-5"/><rect width="863.69" height="277.81" x="1794.88" y="1808.57" class="cls-24" rx="20.31" ry="20.31"/><rect width="863.69" height="277.81" x="1786.69" y="1800.65" class="cls-49" rx="20.31" ry="20.31"/><rect width="201.47" height="21.58" x="2671.2" y="711.79" class="cls-46" rx="6.55" ry="6.55"/><path d="M2869.8 706.88l83.47-170.55a5.805 5.805 0 0 1 7.75-2.66l2.34 1.14a5.805 5.805 0 0 1 2.66 7.75l-83.47 170.55a5.805 5.805 0 0 1-7.75 2.66l-2.34-1.14a5.805 5.805 0 0 1-2.66-7.75" class="cls-46"/><rect width="137.18" height="137.18" x="1797.08" y="1594.43" class="cls-24" rx="5.69" ry="5.69"/><rect width="137.18" height="137.18" x="1976.11" y="1594.43" class="cls-24" rx="5.69" ry="5.69"/><rect width="137.18" height="137.18" x="2155.14" y="1594.43" class="cls-24" rx="5.69" ry="5.69"/><rect width="137.18" height="137.18" x="2334.17" y="1594.43" class="cls-24" rx="5.69" ry="5.69"/><rect width="137.18" height="137.18" x="2513.19" y="1594.43" class="cls-24" rx="5.69" ry="5.69"/><rect width="137.18" height="137.18" x="1791.78" y="1591.04" class="cls-64" rx="5.69" ry="5.69"/><rect width="137.18" height="137.18" x="1970.81" y="1591.04" class="cls-64" rx="5.69" ry="5.69"/><rect width="137.18" height="137.18" x="2149.83" y="1591.04" class="cls-64" rx="5.69" ry="5.69"/><rect width="137.18" height="137.18" x="2328.86" y="1591.04" class="cls-64" rx="5.69" ry="5.69"/><rect width="137.18" height="137.18" x="2507.89" y="1591.04" class="cls-64" rx="5.69" ry="5.69"/><rect width="863.69" height="277.81" x="1791.89" y="1229.41" class="cls-24" rx="20.31" ry="20.31"/><rect width="863.69" height="277.81" x="1786.69" y="1223.55" class="cls-49" rx="20.31" ry="20.31"/><path d="M2065.75 1289.68h-238.69c-8.05 0-14.57-6.52-14.57-14.57s6.52-14.57 14.57-14.57h238.69c8.05 0 14.57 6.52 14.57 14.57s-6.52 14.57-14.57 14.57" class="cls-52"/><rect width="802.8" height="29.14" x="1812.49" y="1329.33" class="cls-24" rx="14.57" ry="14.57"/><path d="M2600.72 1412.1h-773.66c-8.05 0-14.57-6.52-14.57-14.57s6.52-14.57 14.57-14.57h773.66c8.05 0 14.57 6.52 14.57 14.57s-6.52 14.57-14.57 14.57m0 52.27h-773.66c-8.05 0-14.57-6.52-14.57-14.57s6.52-14.57 14.57-14.57h773.66c8.05 0 14.57 6.52 14.57 14.57s-6.52 14.57-14.57 14.57" class="cls-64"/><rect width="267.83" height="29.14" x="1812.49" y="1832.23" class="cls-24" rx="14.57" ry="14.57"/><path d="M2600.72 1930.17h-773.66c-8.05 0-14.57-6.52-14.57-14.57s6.52-14.57 14.57-14.57h773.66c8.05 0 14.57 6.52 14.57 14.57s-6.52 14.57-14.57 14.57" class="cls-52"/><rect width="802.8" height="29.14" x="1812.49" y="1954.65" class="cls-24" rx="14.57" ry="14.57"/><rect width="802.8" height="29.14" x="1812.49" y="2006.92" class="cls-64" rx="14.57" ry="14.57"/><path d="M3342.75 1138.46s-20.87-12.93-15.24-46.74c5.63-33.8 40.72-33.55 40.72-33.55s28.94-33.04 76.57 0 28.17 121.65 66.58 151.86c38.41 30.22 56.95 37.23 95.36 50.03s49.58 37.55 50.1 79.04c.51 41.49-51.66 79.76-91.1 70.54s-35.43-35.52-68.73-51.4c-33.29-15.88-40.06-20.86-46.2-53.13-6.15-32.27-29.9-62.32-56.02-70.26s-52.05-96.4-52.05-96.4z" class="cls-2"/><g clip-path="url(#clippath)"><path d="M3333.01 1135.61s-5.2-32.92 10.11-44.76c0 0 45.05 30.9 63.82 27.43s20.79 39.99 27.72 55.8 46.78 109.66 114.93 139.11 115.5 30.61 115.5 30.61l-46.2 89.52s-64.68 12.71-82.01.58-65.84-28.3-90.38-80.85-47.07-58.11-62.66-88.83-15.59-28.99-24.83-53.24c-9.24-24.26-25.99-75.37-25.99-75.37z" fill="#111742"/></g><path d="M3329.38 1279.68s-33.68 104.74-149.04-6.92c0 0-4.61-48.91-19.38-68.29h-12v88.08s67.37 65.11 104.28 71.57 86.44 3.69 114.74-59.06z" class="cls-50"/><path d="M1917.79 1573.95l-1.99 11.5s9.28 31.53-8.91 50.59l25.77 25.29 27.06-22.98s-8.14-13.86-.35-50.24l-24.11-34.36-17.47 20.21z" class="cls-61"/><path d="M1911.43 1601.38s37.25-5.2 51.69 19.92l7.68-42.74-29.97-37.54-28.24 4.04-11.06 30.03 9.9 26.28z" class="cls-50" clip-path="url(#clippath-1)"/><path d="M1978.21 1513.46s35.69 1.73 32.84-48.51c-2.86-50.24-33.79-25.12-49.01-32.49-15.23-7.36-20.2-25.56-55.07-7.36-10.12 4.76-18.69 4.76-29.16 5.63s-14.28 10.83-11.9 19.06 1.9 17.76-9.99 22.52c-11.9 4.76-19.99 22.09-8.57 30.75s4.28 20.79 0 25.99-4.76 18.16 15.23 20.56 19.03 20.16 26.65 22.32c7.61 2.17 21.89 3.9 24.75 12.13s22.84-22.52 22.84-22.52l41.4-48.08zm-299.93 822.6s-23.39-6.93-41.58 0-16.03 33.79-7.8 50.24c8.23 16.46 11.69 58.91 45.48 65.4 33.79 6.5 55.55-20.83 30.23-36.02-20.49-12.29-20.36-19.92-19.06-30.75s15.25-14.22 15.25-14.22zm399.03-82.75s-40.46 55.04-22.85 64.98c17.62 9.94 89.53 27.27 101.21 19.73 11.69-7.54 25.58-31.68-6.99-41.72s-36.93-20.24-30.95-37.46l-36.73-10.2z" class="cls-2"/><path d="M1817.59 1585.46s-42.16-48.18-42.16-77.63 7.51-120.7 7.51-120.7 18.15-63.38-1.16-86.63c-21.08-25.39-34.07 8.52-34.94 20.21-.85 11.48 6.06 64.97 6.06 64.97s-26.13 99.19-22.09 137.31 61.07 111.32 61.07 111.32l25.7-48.84z" class="cls-61"/><path d="M1727.78 1514.32s29.45 72.97 47.65 71.14c18.19-1.83 34.22-23.92 34.22-23.92l7.94 16.46 8.95 34.79-24.26 16.32s-16.89 11.26-19.06 11.26-24.26-31.19-26.85-37.03c-2.6-5.85-33.35-38.77-33.14-44.4.22-5.63 4.55-44.61 4.55-44.61" class="cls-50" clip-path="url(#clippath-2)"/><path d="M2127.71 1664.33s49.09 12.13 53.71 2.89 24.26-114.35 38.69-131.68 34.65-23.1 52.55-36.96 53.71-25.99 17.33 31.19c-22.52 31.19-36.96 15.59-45.62 42.16s-14.61 133.99-32.14 143.8c-17.53 9.82-93.71.47-93.71.47z" class="cls-61"/><path d="M2144.03 1661.33s-6.06 39.25 9.1 41.85 39.2 1.52 49.38-1.01c21.51-5.34 28.09-45.41 28.09-45.41l1.36 57.69-59.34 22.52-64.63-3.03s-14.2-17.76-13.77-19.92c.43-2.17 16.46-44.61 17.33-47.21s19.06-15.59 19.06-15.59l13.43 10.13z" class="cls-50" clip-path="url(#clippath-3)"/><path d="M3466.03 2084.18s5.76 17.98 12.16 31.66c6.4 13.67 20.73 20.24 21.93 35.27s-37.68 33.52-63.97 49.72c-26.3 16.2-53.68 21.63-59.79-.91-6.12-22.55 42.85-35.26 48.52-69.44 5.67-34.19-1.62-35.96-1.62-35.96l42.77-10.33z" class="cls-12"/><path d="M3381.52 2174.29s41.58 1.15 51.98-21.95 46.78-47.93 46.78-47.93l-8.79-26.55-47.23 10.38s-16.75 21.95-16.17 24.83-26.57 61.22-26.57 61.22" class="cls-1" clip-path="url(#clippath-4)"/><path d="M3292.9 2080.94s.06 18.88 2.01 33.85c1.96 14.97 13.64 25.56 10.24 40.25s-46.05 20.56-76.01 28.04-57.7 4.38-56.72-18.96c.99-23.34 51.51-20.65 67.25-51.52s9.33-34.76 9.33-34.76l43.9 3.09z" class="cls-12"/><path d="M3159.32 2172.27s43.63-25.39 86.14-39.98 39.04-26.72 62.86-22.39l-6.06-32.04h-61.51l-26.85 25.11-52.84 39.42-1.73 29.89z" class="cls-1" clip-path="url(#clippath-5)"/><path d="M3317.38 1537.71s-78.96 245.66-71.42 315.51c7.53 69.85.79 234.92.79 234.92s29.83 16.65 48.02 2.3c0 0 22.34-182.68 18.32-230.47s.9-52.35 32.89-130.29c31.98-77.93 66.43-124.39 69.98-141.98l-98.57-49.99z" class="cls-13"/><g clip-path="url(#clippath-6)"><path d="M3369.97 1544.21l-45.05 45.62s-28.3 138.61-30.03 201.56 5.78 270.86 5.78 270.86l41-233.32s17.33-35.81 37.54-95.29c20.21-59.49 2.32-88.99 2.89-125.9s-12.13-63.53-12.13-63.53" fill="#18247a"/></g><path d="M3337.14 1557.29s-6.8 257.97 20.21 322.95c27.01 64.97 67.13 225.39 67.13 225.39s33.5 7.66 47-11.2c0 0-23.49-184.34-40.87-229.12-17.38-44.77-20.49-47.86-11.63-131.64 8.85-83.78 33-121.17 26.4-157.92l-108.23-18.46z" class="cls-20"/><g clip-path="url(#clippath-7)"><path d="M3379.79 1595.32s-32.05 236.5.87 401.96c0 0-54.58-151.6-55.44-154.2s-6.93-174.12-6.93-174.12l-4.1-96.16s50.31 2.6 51.89 2.6 13.71 19.92 13.71 19.92" fill="#042fa8"/></g><path d="M3399.81 1227.35l8.39-.51s15.62 4.74 20.23 20.1c4.61 15.37 19.96 74.59 7.67 142.2s10.4 193.16 10.4 193.16-71.85 46.1-142.53 0c0 0 16.9-66.84 16.13-137.52s-24.59-98.72-3.84-146.36c20.74-47.63 42.38-67.1 51.73-67.74z" class="cls-19"/><g clip-path="url(#clippath-8)"><path d="M3309.62 1439.82s87.28-120.63 103.95-160.05c0 0 19.06 11.48-2.17 79.91-21.22 68.44-80.96 104.82-97.22 106.55l-4.56-26.42z" fill="#0054fc"/></g><path d="M3329.38 1373s-33.68 104.74-149.04-6.92c0 0-4.61-48.91-19.38-68.29h-12v76.62s67.37 76.56 104.28 83.02 86.44 3.69 114.74-59.06l-38.6-25.38z" class="cls-61"/><path d="M946.47 1585.46h751.73c9.62 0 17.43 7.81 17.43 17.43v189.86c0 9.62-7.81 17.43-17.43 17.43H946.47c-9.62 0-17.43-7.81-17.43-17.43v-189.86c0-9.62 7.81-17.43 17.43-17.43" class="cls-5"/><rect width="776.19" height="215.75" x="929.04" y="1585.46" class="cls-64" rx="16.96" ry="16.96"/><rect width="390.69" height="400.22" x="1286.34" y="1081.51" class="cls-24" rx="16.39" ry="16.39"/><rect width="390.69" height="400.22" x="1279.91" y="1075.08" class="cls-49" rx="16.39" ry="16.39"/><rect width="390.69" height="400.22" x="2764.28" y="1080.28" class="cls-24" rx="16.39" ry="16.39"/><rect width="390.69" height="400.22" x="2758.28" y="1075.08" class="cls-49" rx="16.39" ry="16.39"/><rect width="478.47" height="558.87" x="2711.02" y="1693.68" class="cls-5" rx="21.44" ry="21.44"/><path d="M2727.62 1693.68h430.2c11.68 0 21.15 9.48 21.15 21.15v508.78c0 11.68-9.48 21.15-21.15 21.15h-430.2c-11.68 0-21.15-9.48-21.15-21.15v-508.78c0-11.68 9.48-21.15 21.15-21.15" fill="#f8fcff"/><path d="M1802.43 1112.8h597.45c8.69 0 15.74 7.05 15.74 15.74v14.88c0 8.69-7.05 15.74-15.74 15.74h-597.45c-8.69 0-15.74-7.05-15.74-15.74v-14.88c0-8.69 7.05-15.74 15.74-15.74" class="cls-52"/><path d="M1279.91 927.41h1135.7v53.71h-1135.7z" class="cls-49"/><path d="M2563.15 927.41h412.33v53.71h-412.33z" class="cls-58"/><circle cx="2477.45" cy="931.31" r="19.93" transform="rotate(-76.72 2477.363 931.343)" stroke-width="5" fill="#d6e1fe" stroke="#054aa9" stroke-miterlimit="10"/><path d="M2486.04 949.3l13.4 26.24" stroke-linecap="round" stroke-width="5" fill="#d6e1fe" stroke="#054aa9" stroke-miterlimit="10"/><path d="M2469.04 935.43s-1.99-9.43 8.41-13.96" stroke-linecap="round" stroke-width="2" fill="#d6e1fe" stroke="#054aa9" stroke-miterlimit="10"/><rect width="101.3" height="14.48" x="3045.97" y="923.44" class="cls-20" rx="3.12" ry="3.12"/><rect width="101.3" height="14.48" x="3045.97" y="947.03" class="cls-20" rx="3.12" ry="3.12"/><rect width="101.3" height="14.48" x="3045.97" y="970.61" class="cls-20" rx="3.12" ry="3.12"/><path d="M1718.69 1098.5h9.1v1009.66h-9.1zm983.23 0h9.1v1009.66h-9.1z" class="cls-49"/><rect width="137.18" height="137.18" x="979.39" y="1626.44" class="cls-5" rx="5.69" ry="5.69"/><rect width="137.18" height="137.18" x="1158.42" y="1626.44" class="cls-45" rx="5.69" ry="5.69"/><rect width="137.18" height="137.18" x="1337.45" y="1626.44" class="cls-21" rx="5.69" ry="5.69"/><rect width="137.18" height="137.18" x="1516.48" y="1626.44" class="cls-55" rx="5.69" ry="5.69"/><path d="M1411.24 2182.08h165.73v98.44h-165.73z" class="cls-45"/><path d="M1502.81 2085.79c0 5.48-4.48 9.96-9.95 9.96h-18.42c-5.48 0-9.96-4.48-9.96-9.96v-124.44c0-5.48 4.48-9.96 9.96-9.96h18.42c5.48 0 9.96 4.48 9.95 9.96z" class="cls-12"/><path d="M1483.65 2080.23c3.3 0 5.97 2.67 5.97 5.97v42.31c0 2.16-1.17 4.15-3.05 5.21l-93.76 52.54v39.06h199.1c3.3 0 5.97 2.67 5.97 5.97s-2.67 5.97-5.97 5.97h-205.08c-3.3 0-5.97-2.67-5.97-5.97v-48.53c0-2.16 1.17-4.15 3.05-5.21l93.76-52.55v-38.81c0-3.3 2.68-5.97 5.97-5.97z" class="cls-2"/><path d="M1457.02 2083.3c0-5.48 4.48-9.96 9.95-9.96h33.35c5.48 0 9.96 4.48 9.95 9.96v2.49c0 5.48-4.48 9.96-9.95 9.96h-33.35c-5.48 0-9.96-4.48-9.96-9.96v-2.49z" class="cls-1"/><path d="M1402.26 2212.63c0-5.47 4.48-9.96 9.95-9.96h163.76c5.47 0 9.95 4.48 9.95 9.96v37.33c0 5.47-4.48 9.96-9.96 9.95H1412.2c-5.47 0-9.95-4.48-9.95-9.95v-37.33z" class="cls-55"/><path d="M1399.37 2225.33h2.9v11.95h-2.9zm186.57 0h2.9v11.95h-2.9zm-108.26-129.59h11.95v3.08h-11.95z" fill="#231f20"/><path d="M1113.44 2068.17l21.97 206.06s1.63 15.77 16.63 15.77h166.91c15 0 16.63-15.77 16.63-15.77l21.97-206.06h-244.1z" class="cls-13"/><path d="M1091.01 2049.57s-6.26 163.35 146.31 163.35 140.7-159.1 140.7-159.1" fill="none" stroke-miterlimit="10" stroke="#f3f0de" stroke-width="8"/><rect width="275.4" height="42.19" x="1098.31" y="2027.74" class="cls-2" rx="3" ry="3"/><path d="M1387.01 2049.57c0 5.58-4.03 10.11-9 10.11s-9-4.53-9-10.11 4.03-10.11 9-10.11 9 4.53 9 10.11m-284-.73c0 5.58-4.03 10.11-9 10.11s-9-4.53-9-10.11 4.03-10.11 9-10.11 9 4.53 9 10.11" class="cls-2"/><path d="M1098.31 2036.46s-1.36 17.56.72 26.45c.59 2.53 1.09 4.33 1.87 6.5 5.05 2.38 11.78-2.57 13.83.32 2.49 3.51.31 8.51.31 18.97 7.46 4.95 16.84 6.95 27.61 8.05 33.12 3.37 43.55-27.39 54.25-33.84 10.69-6.45 22.79 30.1 22.04 55.37-.76 25.28-11.97 62.55 16.56 62.55s5.76-40.54 5.35-63.73c-.66-36.91 26.35-61.6 37.75-61.75s10.63 28.34 44.4 26.15 48.56-53.76 42.5-53.76c-5.49 0-222.26 2.26-262.47 3-4.24.08-4.7 5.71-4.7 5.71z" opacity=".3" fill="#231f20"/><path d="M1098.31 2032.5s-1.36 17.56.72 26.44c6.06 25.85 22.09 31.65 43.62 33.84 33.12 3.37 43.55-27.39 54.25-33.84 10.69-6.45 22.79 30.1 22.04 55.37-.76 25.28-11.97 62.55 16.56 62.55s5.76-40.54 5.35-63.73c-.66-36.91 26.35-61.6 37.75-61.75s10.63 28.34 44.4 26.15 46.55-49.81 40.49-49.81l-260.47-.95c-4.24.08-4.7 5.71-4.7 5.71z" class="cls-21"/><path d="M2484.31 682.54s34.2 33.32 64 34.64 121.8-35.7 121.8-35.7 28.72-18.11 58.96-9.02c30.23 9.1 20.5 27.39-8.09 25.1s-38.53 3.08-38.53 3.08-87.67 53.12-127.23 53.3-73.18-28.73-95.07-51.09l24.17-20.31z" class="cls-50"/><path d="M2400.82 638.39s1.25-15.07 13.52-20.73 25.04-5.09 39.99 16.51c14.94 21.6 43.57 58.16 43.57 58.16s-14.57 40.07-53.44 33.31c0 0-43.14-67.84-43.63-87.25z" class="cls-2"/><path d="M1756.57 495.45s-3.7-18.52-4.76-33.58 8.28-27.76 2.02-41.48-49.22-10.99-80.07-12.36-57.42 7.18-51.81 29.86 54.59 9.99 76.16 37.11 16.06 32.21 16.06 32.21z" class="cls-12"/><path d="M1769.36 669.9s-41.2-35.85-60.64-86.55c-19.92-51.96-10.19-92.42-10.19-92.42s25.01-15.95 63.76-15.27c0 0 4.13 74.3 32.84 110.56 25.05 31.64 66.65 59.32 66.65 59.32z" class="cls-2"/><path d="M2456.98 566.89c0 .65.48 28.09-24.23 43.61l6.04 23.31 21.35 5.96s11.78-29.06 24.34-34.51l7.8-9.13-25.34-35.96-9.96 6.73z" class="cls-61"/><path d="M2443.33 592.16c.87 0 27.14 15.02 30.32 35.52 0 0 20.79-17.61 21.95-18.19s-3.32-28.3-3.32-28.3-11.98-17.04-15.74-17.04-29.45 11.98-32.34 12.34-.87 15.67-.87 15.67" class="cls-50" clip-path="url(#clippath-9)"/><path d="M2055.98 632.95l14.98-5.54s74.18 14.92 121.78 8.51c47.6-6.42 202.93-37.53 240.01-25.42 0 0 13.29 23.75 27.4 29.28 0 0-33.48 90.28-97.56 92.48s-300.93.22-300.93.22l-5.67-99.53z" class="cls-20"/><g clip-path="url(#clippath-10)"><path d="M2055.98 700.45s79.65 1.16 155.11 0c75.45-1.16 198.15-53.61 241.2-75.72l21.37 15.06-12.42 30.12-54.58 86.57-98.76 14.44s-140.34.58-158.24 0-83.74-16.97-83.74-16.97-17.33-18.41-17.33-19.49 7.38-34 7.38-34z" fill="#003daa"/></g><path d="M2467.84 710.22s34.2 33.32 64 34.64 121.8-35.7 121.8-35.7 28.72-18.11 58.96-9.02c30.23 9.1 20.5 27.39-8.09 25.09-28.59-2.29-38.53 3.08-38.53 3.08s-87.67 53.12-127.23 53.3-78.93-24.53-100.82-46.88l29.92-24.51z" class="cls-61"/><path d="M2381.4 653.21s1.25-15.07 13.52-20.73 25.04-5.09 39.99 16.51c14.94 21.6 43.57 58.16 43.57 58.16s-14.57 40.07-53.44 33.31c0 0-43.14-67.84-43.63-87.25zm158.91-108.38l7.92-2.76s15.65 4.22 23.28-9.87c7.63-14.1-5.41-18.71-7.32-25.96s11.97-20.17-6.64-37.4c-18.6-17.23-32-8.63-48.75-12.5s-28.29-10.49-57.72 9.84c-29.44 20.33-29.89 62.74-7.37 102.31 10.94 18.86 9.02 19.78 9.02 19.78l18.82-6.44 68.77-37z" class="cls-13"/><g clip-path="url(#clippath-11)"><path d="M2418.79 543.94s9.82 7.8 28.88-3.75 41-36.1 87.78-26.28 56.89-3.75 56.89-3.75l-24.54 55.44-62.08 42.13-52.55 4.07-27.72-18.77-6.64-49.09z" fill="#131e6d"/></g><path d="M2554.66 538.3s-15.16 77.79-44.64 82.9c-29.47 5.11-37.25-41.03-36.49-47.27 0 0-9.37.45-8.79-8.98.59-9.43 9.48-13.06 14.02-10.2 0 0 11.65-3 16.18-13.66 4.53-10.67 10.9-5.86 15.59-6.03s8.47 1.96 15.07-1.94 14.67-.36 19.36 3.17 9.69 2.03 9.69 2.03z" class="cls-61"/><path d="M2458.93 576.49s4.04 6.14 20.79-5.99 20.21-23.39 46.49-19.92 35.81-3.18 35.81-3.18l-.58-16.01s-12.71-11.83-30.61-11.19c-17.9.63-42.16 5.25-54.29 8.72s-26.94 16.75-27.19 22.52c-.24 5.78 9.57 25.05 9.57 25.05z" class="cls-50" clip-path="url(#clippath-12)"/><path d="M1577 660.64s-17.76-6.43-31.18-13.33c-13.43-6.9-19.45-21.47-34.43-23.23s-34.9 36.41-52.06 62.08c-17.16 25.68-23.61 52.83-1.31 59.79 22.3 6.95 36.83-41.51 71.2-45.91 34.37-4.39 35.87 2.95 35.87 2.95l11.92-42.36z" class="cls-12"/><path d="M1565.37 642.99s136.6 15.37 202.03 8.96c65.43-6.4 162.05-33.92 224.04-32.72s79.52 8.18 79.52 8.18l-9.31 105.07s-254.61 4.99-300.88-.94-198.31-22.76-198.31-22.76-15.63-26.55 2.92-65.79z" class="cls-13"/><g clip-path="url(#clippath-13)"><path d="M1551.06 685.34s439.49 24.85 513.42 15.22c73.92-9.64 0 0 0 0l6.48 39.05-140.47 14.33s-291.94 5.42-298 5.42-76.2-18.13-76.2-18.13l-7.83-42.57z" fill="#172377"/></g><path d="M3314.18 1378.4s11.95-30.41 29.79-63.71c17.84-33.31 29.46-62.21 64.09-45.66 34.64 16.56-32.65 148.05-32.65 148.05s-38.09 11.01-61.23-38.68" class="cls-5"/><circle cx="2906.18" cy="802.43" r="16.75" class="cls-64"/><circle cx="2998.01" cy="802.43" r="16.75" class="cls-64"/><circle cx="3089.84" cy="802.43" r="16.75" class="cls-64"/><path d="M1830.44 1975.62l-5.39 12.85s-7.18 35.66 5.39 78.98c12.56 43.31 29.02 116.08 4.76 146.4s-172.39 116.95-172.39 116.95 2.6 39.85 33.79 42.45c0 0 200.98-95.29 216.57-123.01s42.71-187.98 42.71-187.98 125.35-11.59 139.21 13.54c13.86 25.12-32.92 194.05-32.92 194.05s38.12 24.26 58.04 2.6c0 0 79.3-195.17 65.25-255.23-7.81-33.41-11.54-62.55-145.42-73.66l-209.6 32.08z" class="cls-20"/><g clip-path="url(#clippath-14)"><path d="M1662.81 2361.12s208.77-96.95 225.23-123.84 36.09-215.78 36.09-215.78 174.56-24.7 185.31 56.97c10.76 81.68-55.08 158.81-55.08 158.81l-318.79 148.1-53.71 7.47-19.06-31.72z" fill="#072ca3"/></g><path d="M1815.28 1569.62s59.85 30.33 71.32 45.62c11.48 15.29 20.29 20.79 20.29 20.79s23.15 22.38 52.83 2.31c18.42-1.66 25.35 2.24 39-4.26 13.64-6.5 50.03-1.08 79.05 6.28s58.04 15.16 58.04 15.16 5.63 44.18-19.92 81l-81.72-6.93s-5.78 168.64 2.89 196.36c8.66 27.72 7.48 103.95-117.54 106.84-66.11 0-96.14-23.1-95.56-55.44s9.24-84.9 12.71-137.45 2.92-132.25 2.92-132.25l-64.14-67.57s9.97-38.99 39.85-70.46z" class="cls-12"/><path d="M1817.59 1936.35s13.86 11.55 66.99 7.51 103.68-37.54 113.06-100.49 25.55-127.06 25.55-127.06l105.69 14.44-32.34 62.95-50.24 210.22s-123.59 53.71-127.06 53.71-101.2-24.7-101.36-24.83-9.52-66.42-9.52-66.42l9.24-30.03zm-43.6-308.98l71.17 76.24-5.85 58.04-29.23-28.59-36.09-78.4-7.23-17.33z" class="cls-1" clip-path="url(#clippath-15)"/><path d="M1994.6 1493.1s19.65 135.56-40.99 101.35c-11.26-6.06-22.09-38.55-22.09-38.55s-14.29.43-11.69-18.63 17.33-11.26 18.63-10.4c0 0 40.13-11.25 56.15-33.78z" class="cls-61"/><path d="M1914.61 1542.76s6.64 8.09 34.07-5.2c27.43-13.28 51.99-33.8 51.99-33.8l-3.04-16.73-45.2 10.68-36.38 12.13z" class="cls-50" clip-path="url(#clippath-16)"/><path d="M3409.47 1174.09s-8.45 31.5-1.28 52.76c0 0-8.45 15.11-40.21 3.84 0 0 6.15-22.92 2.56-43.28z" class="cls-61"/><path d="M3366.08 1206.79s33.2-3.03 45.98 11.69l1.47-44.4s-21.91-6.28-24.79-6.28-24.1-3.03-24.32 4.33.65 17.98.65 17.98l1.02 16.68z" class="cls-50" clip-path="url(#clippath-17)"/><path d="M3345.02 1103.28s-29.19 94.11 3.46 96.04c32.65 1.92 49.94-18.44 49.94-18.44s17.29.38 19.21-17.29-13.06-12.23-13.06-12.23-12.29-6.98-10.76-18.89c0 0-34.57-4.61-48.79-29.19" class="cls-61"/><path d="M3336.76 1112.51s8.1 17.33 29.32 24.83c21.22 7.51 34.21 31.76 54.71 23.97l-11.32-23.68s-14.09-19.35-14.96-19.35-38.98-14.44-39.27-16.17-13.28-8.66-13.28-8.66z" class="cls-50" clip-path="url(#clippath-18)"/><path d="M3551.82 1707.73h158.28v69.98h-158.28z" class="cls-58"/><path d="M3615.82 1777.71h158.28v69.98h-158.28z" class="cls-64"/><path d="M894.29 1347.27h158.28v69.98H894.29z" class="cls-58"/><path d="M958.29 1417.26h158.28v69.98H958.29z" class="cls-64"/><circle cx="913.17" cy="1043.49" r="215.48" class="cls-3"/><circle cx="913.17" cy="1043.49" r="197.48" class="cls-58"/><path d="M913.17 1049.67c-1.49 0-2.98-.54-4.16-1.61L801.85 950.6a6.181 6.181 0 0 1 8.32-9.14l103.09 93.75 79.29-69.3c2.57-2.25 6.47-1.98 8.72.59s1.98 6.47-.59 8.72l-83.44 72.93a6.18 6.18 0 0 1-4.07 1.53zm-6.74 144.93h12.94v33.97h-12.94zm0-336.19h12.94v33.97h-12.94zM761.8 1037.02v12.94h-33.97v-12.94zm336.18 0v12.94h-33.97v-12.94z" fill="#054aa9"/><path d="M913.17 1047.4l52.3 157.31" stroke-linejoin="round" stroke="#de4d30" stroke-linecap="round" stroke-width="2" fill="none"/><circle cx="913.17" cy="1043.49" r="22.78" class="cls-3" transform="rotate(-80.78 913.216 1043.497)"/><circle cx="913.17" cy="1043.49" r="13.42" class="cls-12"/></svg>